<svg version="1.1" id="Layer_1" xmlns="http://www.w3.org/2000/svg" xmlns:xlink="http://www.w3.org/1999/xlink" x="0px" y="0px"
	 width="100%" viewBox="0 0 1500 500" enable-background="new 0 0 1500 500" xml:space="preserve">
<path fill="#000000" opacity="1.000000" stroke="none" 
	d="
M1422.000000,501.000000 
	C948.059143,501.000000 474.618256,501.000000 1.088690,501.000000 
	C1.088690,334.413300 1.088690,167.826569 1.088690,1.119908 
	C500.999969,1.119908 1001.000000,1.119908 1500.994873,1.119908 
	C1500.994873,167.715210 1500.994873,334.357605 1500.992188,501.000000 
	C1474.826416,501.000000 1448.663208,501.000000 1422.000000,501.000000 
M1036.072388,285.334167 
	C1036.570190,297.953857 1044.903809,306.164581 1057.337280,306.178894 
	C1079.490601,306.204346 1101.644165,306.235840 1123.797119,306.149109 
	C1134.668091,306.106537 1143.780518,297.068787 1144.011353,286.218750 
	C1144.149292,279.725525 1144.067871,273.227173 1144.050537,266.731201 
	C1144.007080,250.480637 1136.108765,242.499115 1119.845825,242.443710 
	C1100.357666,242.377335 1080.869385,242.426651 1061.381104,242.425873 
	C1059.643311,242.425812 1057.905518,242.425888 1056.331055,242.425888 
	C1056.331055,233.931885 1056.331055,226.214157 1056.331055,218.350555 
	C1079.000854,218.350555 1101.289551,218.350555 1123.812988,218.350555 
	C1123.991577,221.371628 1124.163330,224.275070 1124.355957,227.532578 
	C1127.878052,227.532578 1131.017944,227.532578 1134.157715,227.532578 
	C1137.398926,227.532578 1140.640259,227.532578 1144.032471,227.532578 
	C1144.032471,224.316345 1144.080811,221.825592 1144.024292,219.337234 
	C1143.756470,207.536407 1135.517456,198.438873 1123.716187,198.253326 
	C1101.236084,197.899872 1078.741821,197.931732 1056.261841,198.309006 
	C1044.474365,198.506805 1036.159180,207.684464 1036.062744,219.386978 
	C1036.003784,226.548859 1035.981689,233.712326 1036.060913,240.873779 
	C1036.201294,253.567291 1044.809448,262.149261 1057.406494,262.168365 
	C1077.394409,262.198700 1097.382446,262.176788 1117.370361,262.176971 
	C1119.474854,262.176971 1121.579468,262.176971 1123.781494,262.176971 
	C1123.781494,270.586914 1123.781494,278.335022 1123.781494,286.130737 
	C1101.099243,286.130737 1078.716675,286.130737 1056.158569,286.130737 
	C1056.006348,283.059143 1055.869995,280.310394 1055.732666,277.539459 
	C1048.972900,277.539459 1042.600342,277.539459 1036.068726,277.539459 
	C1036.068726,280.095642 1036.068726,282.255249 1036.072388,285.334167 
M792.505371,306.189117 
	C795.790100,306.189117 799.074768,306.189117 802.706665,306.189117 
	C802.706665,280.080414 802.706665,254.527893 802.706665,227.552521 
	C816.786499,244.220566 830.018860,259.885406 843.608215,275.972809 
	C857.085815,260.002930 870.369019,244.263397 883.652161,228.523865 
	C884.017029,228.726303 884.381897,228.928741 884.746765,229.131180 
	C884.746765,254.704880 884.746765,280.278564 884.746765,305.958435 
	C891.585876,305.958435 898.017761,305.958435 904.335266,305.958435 
	C904.335266,269.946411 904.335266,234.211655 904.335266,198.151688 
	C897.688232,198.151688 891.368591,197.984192 885.069946,198.274124 
	C883.569519,198.343201 881.798828,199.647293 880.732849,200.883774 
	C874.326416,208.315002 868.091248,215.893860 861.794739,223.419922 
	C855.833801,230.544724 849.867920,237.665390 843.699402,245.032501 
	C842.175049,243.332199 840.934265,242.029800 839.783508,240.652161 
	C828.905273,227.628159 818.074768,214.563950 807.128784,201.597107 
	C805.932434,200.179901 804.148987,198.420364 802.550354,198.327606 
	C796.114441,197.954117 789.644226,198.172928 782.987793,198.172928 
	C782.987793,234.348495 782.987793,270.090179 782.987793,306.189117 
	C785.970337,306.189117 788.767029,306.189117 792.505371,306.189117 
M935.523682,306.189056 
	C964.131104,306.189056 992.738525,306.189056 1021.253174,306.189056 
	C1021.253174,299.376373 1021.253174,293.128967 1021.253174,286.470947 
	C994.816650,286.470947 968.718628,286.470947 942.377625,286.470947 
	C942.377625,278.288879 942.377625,270.530731 942.377625,262.220673 
	C963.683411,262.220673 984.743469,262.220673 1005.831482,262.220673 
	C1005.831482,255.401535 1005.831482,249.137756 1005.831482,242.272583 
	C984.542297,242.272583 963.502075,242.272583 942.441772,242.272583 
	C942.441772,233.939041 942.441772,226.214935 942.441772,217.973541 
	C968.966553,217.973541 995.188171,217.973541 1021.302856,217.973541 
	C1021.302856,211.175552 1021.302856,204.905914 1021.302856,198.569656 
	C988.135071,198.569656 955.278015,198.569656 922.398987,198.569656 
	C922.398987,234.594101 922.398987,270.194061 922.398987,306.189026 
	C926.598389,306.189026 930.567444,306.189026 935.523682,306.189056 
M343.287354,225.499863 
	C343.287354,252.263535 343.287354,279.027222 343.287354,305.898987 
	C350.219055,305.898987 356.617310,305.898987 363.417480,305.898987 
	C363.417480,293.716400 363.417480,281.822968 363.417480,269.511932 
	C365.452301,269.511932 367.096283,269.519440 368.740204,269.510773 
	C388.727570,269.405487 408.734100,268.734283 428.694672,269.413971 
	C439.682343,269.788086 451.917053,261.001221 451.409088,247.094727 
	C451.093079,238.443802 451.354401,229.772736 451.302277,221.111038 
	C451.217438,207.018295 442.620636,198.476379 428.510223,198.468140 
	C401.690979,198.452469 374.871735,198.459412 348.052490,198.474609 
	C346.612061,198.475418 345.171692,198.638489 343.287384,198.752991 
	C343.287384,207.566757 343.287384,216.033310 343.287354,225.499863 
M569.141296,198.169144 
	C563.856750,198.169144 558.572266,198.169144 552.897827,198.169144 
	C552.897827,213.053177 552.897827,227.476196 552.897827,242.181900 
	C529.131348,242.181900 505.767914,242.181900 481.976471,242.181900 
	C481.976471,227.482239 481.976471,213.056808 481.976471,198.518158 
	C475.168793,198.518158 468.793640,198.518158 462.278015,198.518158 
	C462.278015,234.501556 462.278015,270.113586 462.278015,305.956726 
	C468.890533,305.956726 475.328766,305.956726 482.081726,305.956726 
	C482.081726,291.393799 482.081726,276.925690 482.081726,262.438171 
	C505.812988,262.438171 529.230835,262.438171 553.049866,262.438171 
	C553.049866,277.130188 553.049866,291.544647 553.049866,305.966980 
	C559.734863,305.966980 566.014160,305.966980 572.643677,305.966980 
	C572.643677,270.760162 572.662720,235.800476 572.535645,200.841339 
	C572.532410,199.953064 570.923035,199.070618 569.141296,198.169144 
M667.500061,198.146393 
	C655.261597,198.146393 643.023071,198.146393 630.626953,198.146393 
	C630.626953,205.191467 630.626953,211.459610 630.626953,218.411713 
	C645.328552,218.411713 659.855469,218.411713 674.720642,218.411713 
	C674.720642,247.999557 674.720642,276.905212 674.720642,305.925293 
	C681.497559,305.925293 687.906311,305.925293 694.808350,305.925293 
	C694.808350,276.565063 694.808350,247.494720 694.808350,218.094147 
	C709.579651,218.094147 723.856323,218.094147 738.166992,218.094147 
	C738.166992,211.344254 738.166992,204.936462 738.166992,198.146393 
	C714.742554,198.146393 691.621338,198.146393 667.500061,198.146393 
M769.790710,266.500122 
	C769.790710,243.786636 769.790710,221.073151 769.790710,198.501236 
	C762.633362,198.501236 756.378540,198.501236 750.155396,198.501236 
	C750.155396,234.569855 750.155396,270.284454 750.155396,305.811066 
	C756.822449,305.811066 763.204163,305.811066 769.790710,305.811066 
	C769.790710,292.787506 769.790710,280.143860 769.790710,266.500122 
z"/>
<path fill="#FAFAFA" opacity="1.000000" stroke="none" 
	d="
M1036.070557,284.874512 
	C1036.068726,282.255249 1036.068726,280.095642 1036.068726,277.539459 
	C1042.600342,277.539459 1048.972900,277.539459 1055.732666,277.539459 
	C1055.869995,280.310394 1056.006348,283.059143 1056.158569,286.130737 
	C1078.716675,286.130737 1101.099243,286.130737 1123.781494,286.130737 
	C1123.781494,278.335022 1123.781494,270.586914 1123.781494,262.176971 
	C1121.579468,262.176971 1119.474854,262.176971 1117.370361,262.176971 
	C1097.382446,262.176788 1077.394409,262.198700 1057.406494,262.168365 
	C1044.809448,262.149261 1036.201294,253.567291 1036.060913,240.873779 
	C1035.981689,233.712326 1036.003784,226.548859 1036.062744,219.386978 
	C1036.159180,207.684464 1044.474365,198.506805 1056.261841,198.309006 
	C1078.741821,197.931732 1101.236084,197.899872 1123.716187,198.253326 
	C1135.517456,198.438873 1143.756470,207.536407 1144.024292,219.337234 
	C1144.080811,221.825592 1144.032471,224.316345 1144.032471,227.532578 
	C1140.640259,227.532578 1137.398926,227.532578 1134.157715,227.532578 
	C1131.017944,227.532578 1127.878052,227.532578 1124.355957,227.532578 
	C1124.163330,224.275070 1123.991577,221.371628 1123.812988,218.350555 
	C1101.289551,218.350555 1079.000854,218.350555 1056.331055,218.350555 
	C1056.331055,226.214157 1056.331055,233.931885 1056.331055,242.425888 
	C1057.905518,242.425888 1059.643311,242.425812 1061.381104,242.425873 
	C1080.869385,242.426651 1100.357666,242.377335 1119.845825,242.443710 
	C1136.108765,242.499115 1144.007080,250.480637 1144.050537,266.731201 
	C1144.067871,273.227173 1144.149292,279.725525 1144.011353,286.218750 
	C1143.780518,297.068787 1134.668091,306.106537 1123.797119,306.149109 
	C1101.644165,306.235840 1079.490601,306.204346 1057.337280,306.178894 
	C1044.903809,306.164581 1036.570190,297.953857 1036.070557,284.874512 
z"/>
<path fill="#FAFAFA" opacity="1.000000" stroke="none" 
	d="
M792.034546,306.189117 
	C788.767029,306.189117 785.970337,306.189117 782.987793,306.189117 
	C782.987793,270.090179 782.987793,234.348495 782.987793,198.172928 
	C789.644226,198.172928 796.114441,197.954117 802.550354,198.327606 
	C804.148987,198.420364 805.932434,200.179901 807.128784,201.597107 
	C818.074768,214.563950 828.905273,227.628159 839.783508,240.652161 
	C840.934265,242.029800 842.175049,243.332199 843.699402,245.032501 
	C849.867920,237.665390 855.833801,230.544724 861.794739,223.419922 
	C868.091248,215.893860 874.326416,208.315002 880.732849,200.883774 
	C881.798828,199.647293 883.569519,198.343201 885.069946,198.274124 
	C891.368591,197.984192 897.688232,198.151688 904.335266,198.151688 
	C904.335266,234.211655 904.335266,269.946411 904.335266,305.958435 
	C898.017761,305.958435 891.585876,305.958435 884.746765,305.958435 
	C884.746765,280.278564 884.746765,254.704880 884.746765,229.131180 
	C884.381897,228.928741 884.017029,228.726303 883.652161,228.523865 
	C870.369019,244.263397 857.085815,260.002930 843.608215,275.972809 
	C830.018860,259.885406 816.786499,244.220566 802.706665,227.552521 
	C802.706665,254.527893 802.706665,280.080414 802.706665,306.189117 
	C799.074768,306.189117 795.790100,306.189117 792.034546,306.189117 
z"/>
<path fill="#FAFAFA" opacity="1.000000" stroke="none" 
	d="
M935.030090,306.189026 
	C930.567444,306.189026 926.598389,306.189026 922.398987,306.189026 
	C922.398987,270.194061 922.398987,234.594101 922.398987,198.569656 
	C955.278015,198.569656 988.135071,198.569656 1021.302856,198.569656 
	C1021.302856,204.905914 1021.302856,211.175552 1021.302856,217.973541 
	C995.188171,217.973541 968.966553,217.973541 942.441772,217.973541 
	C942.441772,226.214935 942.441772,233.939041 942.441772,242.272583 
	C963.502075,242.272583 984.542297,242.272583 1005.831482,242.272583 
	C1005.831482,249.137756 1005.831482,255.401535 1005.831482,262.220673 
	C984.743469,262.220673 963.683411,262.220673 942.377625,262.220673 
	C942.377625,270.530731 942.377625,278.288879 942.377625,286.470947 
	C968.718628,286.470947 994.816650,286.470947 1021.253174,286.470947 
	C1021.253174,293.128967 1021.253174,299.376373 1021.253174,306.189056 
	C992.738525,306.189056 964.131104,306.189056 935.030090,306.189026 
z"/>
<path fill="#F9F9F9" opacity="1.000000" stroke="none" 
	d="
M343.287354,224.999847 
	C343.287384,216.033310 343.287384,207.566757 343.287384,198.752991 
	C345.171692,198.638489 346.612061,198.475418 348.052490,198.474609 
	C374.871735,198.459412 401.690979,198.452469 428.510223,198.468140 
	C442.620636,198.476379 451.217438,207.018295 451.302277,221.111038 
	C451.354401,229.772736 451.093079,238.443802 451.409088,247.094727 
	C451.917053,261.001221 439.682343,269.788086 428.694672,269.413971 
	C408.734100,268.734283 388.727570,269.405487 368.740204,269.510773 
	C367.096283,269.519440 365.452301,269.511932 363.417480,269.511932 
	C363.417480,281.822968 363.417480,293.716400 363.417480,305.898987 
	C356.617310,305.898987 350.219055,305.898987 343.287354,305.898987 
	C343.287354,279.027222 343.287354,252.263535 343.287354,224.999847 
M363.158600,221.851883 
	C363.158600,230.810272 363.158600,239.768661 363.158600,249.128937 
	C386.049225,249.128937 408.555542,249.128937 431.041931,249.128937 
	C431.041931,238.701721 431.041931,228.663132 431.041931,218.238129 
	C409.003632,218.238129 387.380066,218.206894 365.757660,218.351532 
	C364.886292,218.357346 364.026062,220.026611 363.158600,221.851883 
z"/>
<path fill="#FAFAFA" opacity="1.000000" stroke="none" 
	d="
M569.602051,198.177307 
	C570.923035,199.070618 572.532410,199.953064 572.535645,200.841339 
	C572.662720,235.800476 572.643677,270.760162 572.643677,305.966980 
	C566.014160,305.966980 559.734863,305.966980 553.049866,305.966980 
	C553.049866,291.544647 553.049866,277.130188 553.049866,262.438171 
	C529.230835,262.438171 505.812988,262.438171 482.081726,262.438171 
	C482.081726,276.925690 482.081726,291.393799 482.081726,305.956726 
	C475.328766,305.956726 468.890533,305.956726 462.278015,305.956726 
	C462.278015,270.113586 462.278015,234.501556 462.278015,198.518158 
	C468.793640,198.518158 475.168793,198.518158 481.976471,198.518158 
	C481.976471,213.056808 481.976471,227.482239 481.976471,242.181900 
	C505.767914,242.181900 529.131348,242.181900 552.897827,242.181900 
	C552.897827,227.476196 552.897827,213.053177 552.897827,198.169144 
	C558.572266,198.169144 563.856750,198.169144 569.602051,198.177307 
z"/>
<path fill="#FAFAFA" opacity="1.000000" stroke="none" 
	d="
M668.000122,198.146393 
	C691.621338,198.146393 714.742554,198.146393 738.166992,198.146393 
	C738.166992,204.936462 738.166992,211.344254 738.166992,218.094147 
	C723.856323,218.094147 709.579651,218.094147 694.808350,218.094147 
	C694.808350,247.494720 694.808350,276.565063 694.808350,305.925293 
	C687.906311,305.925293 681.497559,305.925293 674.720642,305.925293 
	C674.720642,276.905212 674.720642,247.999557 674.720642,218.411713 
	C659.855469,218.411713 645.328552,218.411713 630.626953,218.411713 
	C630.626953,211.459610 630.626953,205.191467 630.626953,198.146393 
	C643.023071,198.146393 655.261597,198.146393 668.000122,198.146393 
z"/>
<path fill="#FAFAFA" opacity="1.000000" stroke="none" 
	d="
M769.790710,267.000153 
	C769.790710,280.143860 769.790710,292.787506 769.790710,305.811066 
	C763.204163,305.811066 756.822449,305.811066 750.155396,305.811066 
	C750.155396,270.284454 750.155396,234.569855 750.155396,198.501236 
	C756.378540,198.501236 762.633362,198.501236 769.790710,198.501236 
	C769.790710,221.073151 769.790710,243.786636 769.790710,267.000153 
z"/>
<path fill="#040404" opacity="1.000000" stroke="none" 
	d="
M363.159607,221.386353 
	C364.026062,220.026611 364.886292,218.357346 365.757660,218.351532 
	C387.380066,218.206894 409.003632,218.238129 431.041931,218.238129 
	C431.041931,228.663132 431.041931,238.701721 431.041931,249.128937 
	C408.555542,249.128937 386.049225,249.128937 363.158600,249.128937 
	C363.158600,239.768661 363.158600,230.810272 363.159607,221.386353 
z"/>
</svg>